<svg width="56" height="49" viewBox="0 0 56 49" fill="none" xmlns="http://www.w3.org/2000/svg">
<g clip-path="url(#clip0_57_249)">
<path d="M54.6885 40.3816C54.6885 40.4361 54.6865 40.4894 54.6811 40.5426C54.6212 41.3185 54.1244 41.9719 53.4372 42.2568C53.1985 42.3565 52.937 42.4111 52.6627 42.4111C51.5439 42.4111 50.6368 41.5024 50.6368 40.3816C50.6368 40.3519 50.6375 40.323 50.6389 40.294L45.9303 36.9908L43.8339 35.5204V28.2922L40.661 26.0661L39.1328 24.9944L38.4301 24.5013V24.4461L38.3878 24.4717L37.0357 25.2854L35.2573 26.3564V34.3719L35.2721 34.3632C35.8974 34.6885 36.3317 35.3311 36.362 36.0788C36.3633 36.1071 36.364 36.1354 36.364 36.1637C36.364 36.9524 35.9142 37.6368 35.2573 37.9715C34.9816 38.113 34.6689 38.1925 34.3381 38.1925C33.9845 38.1925 33.6517 38.1015 33.3626 37.9419V37.884L33.3135 37.9136C32.7144 37.5613 32.3123 36.9093 32.3123 36.1637C32.3123 36.1569 32.3123 36.1509 32.313 36.1441C32.3197 35.3857 32.742 34.7269 33.3626 34.3854V25.1251L35.2573 23.984L36.5684 23.1953L37.0357 22.9137V18.3388L35.2573 17.0913L33.3626 15.7624L32.3433 15.047L31.3085 15.6701L30.3504 16.2467L28.3656 17.4416L27.4592 17.9872C27.396 19.0508 26.5146 19.8934 25.4374 19.8934C25.3668 19.8934 25.2976 19.89 25.229 19.8826C25.0058 19.8597 24.7926 19.8005 24.597 19.7102C24.168 19.5149 23.8197 19.1734 23.6147 18.7497C23.4842 18.4823 23.4116 18.1819 23.4116 17.8639C23.4116 17.7945 23.415 17.7265 23.4224 17.6592C23.5246 16.6346 24.3879 15.8344 25.4374 15.8344C25.7084 15.8344 25.9673 15.8876 26.2033 15.9853L26.2497 15.957L28.2345 14.7621L30.2273 13.5625L31.3085 12.9118V3.79156C30.6987 3.44198 30.2872 2.78322 30.2872 2.02881C30.2872 1.27441 30.6987 0.616323 31.3085 0.266736C31.6043 0.096995 31.9466 0 32.3123 0C32.6969 0 33.0566 0.107099 33.3626 0.293679C33.9475 0.650001 34.3381 1.29394 34.3381 2.02881C34.3381 2.76368 33.9475 3.4083 33.3626 3.76462V13.0849L34.3973 13.811L35.2573 14.4139L37.0357 15.6613V10.1562C36.8568 10.0464 36.6961 9.90966 36.5603 9.75069C36.253 9.39504 36.0681 8.9323 36.0681 8.42577C36.0681 7.69359 36.4554 7.05235 37.0357 6.69535C37.3436 6.5054 37.706 6.39628 38.094 6.39628C38.2083 6.39628 38.3205 6.40571 38.4301 6.42457C38.6836 6.46633 38.9203 6.55592 39.1328 6.68323C39.5167 6.91359 39.8186 7.26789 39.9819 7.6909C40.0714 7.91857 40.1198 8.16644 40.1198 8.42577C40.1198 9.16603 39.7238 9.81401 39.1328 10.1683V22.4072L40.3726 23.2768L40.661 23.4795L43.8339 25.705L45.9303 27.1754L46.5227 27.591L48.3421 28.8675L50.2408 30.1991C50.4587 30.119 50.6933 30.0752 50.9387 30.0752C52.0575 30.0752 52.9645 30.9838 52.9645 32.1047V32.1101C52.9625 32.8995 52.5107 33.5832 51.8518 33.9159C51.5775 34.056 51.2675 34.1342 50.9387 34.1342C49.8199 34.1342 48.9136 33.2255 48.9136 32.1047C48.9136 32.0238 48.9183 31.9437 48.9284 31.8656L46.3573 30.0624L45.9303 29.7627V34.4036L51.8209 38.536C52.077 38.4174 52.3621 38.3521 52.6627 38.3521C53.7815 38.3521 54.6885 39.2608 54.6885 40.3816Z" fill="white"/>
<path d="M23.9463 0.327263C23.992 0.297626 24.0377 0.270009 24.0848 0.245761C24.7672 -0.126727 25.5848 -0.0647582 26.1974 0.356901C26.4105 0.503067 26.5988 0.693015 26.748 0.923379C27.3572 1.86369 27.0909 3.12059 26.1523 3.73085C26.1274 3.74701 26.1026 3.7625 26.0777 3.77665L25.8766 9.53169L25.7872 12.094L19.736 16.031L19.6002 19.9095L19.5356 21.7773L19.5054 22.6361L19.459 22.6664L19.5033 22.688L20.9207 23.3811L22.7858 24.2918L29.496 19.9263L29.4805 19.9189C29.4126 19.2164 29.7138 18.5017 30.323 18.0686C30.3458 18.0518 30.3694 18.0363 30.3929 18.0208C31.0531 17.591 31.8714 17.5964 32.5088 17.9662C32.7771 18.1205 33.0144 18.34 33.1946 18.6182C33.3869 18.9153 33.4925 19.2447 33.516 19.5747L33.4676 19.6064L33.5194 19.6313C33.551 20.3264 33.2242 21.0195 32.5996 21.4257C32.5942 21.4291 32.5888 21.4324 32.5828 21.4358C31.944 21.8433 31.1627 21.8474 30.5388 21.5119L22.7865 26.5557L20.799 25.585L19.4247 24.9128L18.9345 24.6737L15.1048 27.1652L15.0288 29.3389L14.9481 31.6546L14.9044 32.9008L15.9896 33.4309L16.9941 33.9219L19.0757 34.939L20.0258 35.4031C20.9503 34.877 22.1363 35.1586 22.7226 36.0639C22.7609 36.1231 22.7959 36.1831 22.8268 36.2451C22.929 36.4451 22.9956 36.6566 23.0265 36.8701C23.0964 37.3369 23.0003 37.8158 22.7576 38.2186C22.6049 38.4739 22.3925 38.6982 22.1269 38.8713C22.0691 38.9091 22.0099 38.9434 21.9494 38.9737C21.0363 39.4459 19.896 39.1563 19.3245 38.2745C19.1772 38.0469 19.0804 37.8003 19.034 37.5491L18.985 37.5255L16.9033 36.5084L14.8136 35.4873L13.68 34.9336L6.04471 39.9006C6.08437 40.6031 5.75694 41.3077 5.12559 41.7185C4.49424 42.1294 3.71901 42.1422 3.09439 41.8203C2.79115 41.664 2.52355 41.4296 2.32454 41.1224C2.11476 40.7991 2.00853 40.4387 1.99844 40.0804C1.97827 39.3947 2.30437 38.7157 2.91957 38.3156C3.53546 37.9149 4.28716 37.8926 4.90438 38.1897L12.7071 33.1136L12.7515 31.8486L12.7878 30.7978L12.8638 28.6242L8.25543 31.6223C8.2608 31.8325 8.23391 32.0419 8.17474 32.2427C8.04431 32.6946 7.75788 33.1021 7.33362 33.3776C6.72043 33.7764 5.97276 33.8 5.35823 33.507C5.03146 33.3514 4.74302 33.1069 4.53122 32.7809C4.46869 32.6845 4.41558 32.5855 4.37187 32.4831C4.269 32.2474 4.21454 31.9995 4.2058 31.7516C4.18966 31.3037 4.32145 30.8571 4.58703 30.4893C4.7289 30.29 4.90976 30.1148 5.12693 29.9734C5.74685 29.5699 6.5046 29.5497 7.12317 29.8535L17.3693 23.1878L17.4217 21.6722L17.4345 21.3193L17.5696 17.4415L17.6591 14.8792L17.6846 14.1551L17.7619 11.931L17.8426 9.61049C17.657 9.47106 17.4923 9.29796 17.3585 9.09184C16.7494 8.15153 17.0156 6.89463 17.9542 6.28437L17.9589 6.28168C18.6212 5.85329 19.4395 5.86069 20.0769 6.23318C20.3438 6.38743 20.5778 6.605 20.7566 6.88116C21.3658 7.82148 21.0989 9.0777 20.1609 9.68796C20.093 9.73174 20.0237 9.77148 19.9525 9.80583L19.8436 12.9481L19.8254 13.4701L23.7103 10.9422L23.9618 3.7423C23.7231 3.59142 23.5133 3.388 23.3492 3.1354C22.7401 2.19509 23.0063 0.938197 23.945 0.327937L23.9463 0.327263Z" fill="white"/>
<path d="M50.0752 47.2769C49.9361 47.4688 49.7686 47.6285 49.5837 47.7544C48.9107 48.2125 47.997 48.2239 47.3004 47.7167C46.704 47.2823 46.4196 46.5784 46.4936 45.8933L40.8 42.4662L39.6826 41.794L38.5853 42.2378L36.4055 43.1202L39.2549 45.1942C39.7222 44.9833 40.2621 44.9584 40.7536 45.1403C40.9224 45.2016 41.0858 45.2878 41.2377 45.3983C41.8348 45.8327 42.1192 46.5386 42.0446 47.225C42.0089 47.5584 41.8879 47.8878 41.6768 48.1788C41.426 48.5243 41.0858 48.7648 40.7106 48.8928C40.7032 48.8961 40.6958 48.8982 40.6877 48.9002C40.1041 49.0922 39.4378 49.01 38.902 48.6193C38.7379 48.4994 38.5974 48.36 38.4811 48.2057C38.2128 47.8494 38.0763 47.4156 38.0837 46.9805L28.8797 40.2818L27.8941 40.9998L24.9747 43.1243L23.3832 44.2821L19.8392 46.8619C19.8553 47.1947 19.7867 47.5335 19.6308 47.844C19.583 47.9397 19.5272 48.032 19.4627 48.1202C18.9342 48.849 18.005 49.1124 17.1988 48.8281C17.1847 48.8234 17.1706 48.8194 17.1571 48.8133C16.9938 48.752 16.8358 48.6678 16.6878 48.56C16.2078 48.2104 15.9294 47.6857 15.8776 47.1374C15.8326 46.672 15.9516 46.1884 16.2481 45.7802C16.8055 45.011 17.81 44.7597 18.6451 45.1234L21.1631 43.2913L17.3683 41.5986L11.3869 45.9519C11.4185 46.4012 11.2975 46.8633 11.0124 47.2567C10.4651 48.0111 9.48955 48.267 8.66389 47.9336C8.51597 47.8737 8.37276 47.7948 8.23828 47.6972C7.74477 47.3382 7.46507 46.7939 7.42473 46.2295C7.39178 45.7775 7.51213 45.3127 7.79856 44.918C8.34653 44.1623 9.32684 43.9063 10.1538 44.2438L15.1475 40.6091L16.7389 39.4513L18.9597 40.4421L22.7545 42.1348L27.0893 38.9791L27.9405 38.3601L27.964 36.9786L28.0023 34.7652L28.005 34.6527L27.3286 34.3509L27.2768 34.328H27.2755L25.1071 33.3601L20.1491 31.1481C20.1149 31.1717 20.0799 31.1925 20.0429 31.2121C19.3887 31.5792 18.553 31.5563 17.9055 31.0848C17.4637 30.7635 17.1928 30.2933 17.1128 29.7935C17.0758 29.5605 17.0785 29.3213 17.1255 29.0883C17.1733 28.8451 17.2674 28.6073 17.4106 28.3884C17.4281 28.3608 17.4469 28.3332 17.4671 28.3063C17.611 28.1082 17.7845 27.9445 17.9768 27.8166C18.6484 27.3713 19.5521 27.3639 20.2413 27.8657C20.6897 28.1924 20.9627 28.672 21.0373 29.1819L27.1209 31.8957L27.2984 31.9752H27.2997L28.0467 32.3087L29.3417 32.8859L29.9743 33.1688L29.967 33.581L29.9333 35.5135L29.9266 35.9231L29.9085 36.9274L29.8829 38.3749L34.5807 41.794L37.6298 40.56L38.6209 40.1592L38.6344 39.394L38.6451 38.8053L38.6754 37.05L38.7439 33.1035L38.7675 31.7543C38.715 31.7233 38.6633 31.6896 38.6128 31.6526C38.3701 31.4761 38.1785 31.2545 38.0427 31.0066C37.6809 30.3512 37.7058 29.5187 38.1745 28.8727C38.3533 28.6262 38.5779 28.4329 38.8287 28.2962C39.4809 27.9385 40.3079 27.9648 40.9493 28.4315C40.9822 28.4551 41.0132 28.48 41.0434 28.505C41.112 28.5609 41.1752 28.6201 41.2337 28.6835C41.8536 29.3469 41.9518 30.3674 41.4341 31.1447C41.4193 31.1676 41.4038 31.1892 41.3883 31.2114C41.2727 31.371 41.1375 31.5078 40.989 31.6216L40.8773 38.03L40.8558 39.2532L40.8404 40.1255L42.0325 40.8435L41.9551 40.8739L42.4513 41.0948H42.4527L47.7173 44.2646C48.3318 44.0134 49.058 44.0767 49.6348 44.4963C50.1109 44.8426 50.3886 45.3619 50.443 45.9055C50.4921 46.3756 50.3738 46.864 50.0746 47.2769H50.0752Z" fill="white"/>
</g>
<defs>
<clipPath id="clip0_57_249">
<rect width="56" height="49" fill="white"/>
</clipPath>
</defs>
</svg>
